<?xml version="1.0" standalone="no"?><!DOCTYPE svg PUBLIC "-//W3C//DTD SVG 1.1//EN" "http://www.w3.org/Graphics/SVG/1.1/DTD/svg11.dtd"><svg t="1530844099120" class="icon" style="" viewBox="0 0 1024 1024" version="1.1" xmlns="http://www.w3.org/2000/svg" p-id="909" xmlns:xlink="http://www.w3.org/1999/xlink" width="200" height="200"><defs><style type="text/css"></style></defs><path d="M864.4 160.7H162.1c-51.8 0-93.9 42.1-93.9 93.9v351.2c0 51.8 42.1 93.9 93.9 93.9h193.7l-0.5 167.1 242.9-167.2h266.2c51.8 0 93.9-42.1 93.9-93.9V254.6c0-51.8-42.1-93.9-93.9-93.9z m53.9 445c0 29.7-24.2 53.9-53.9 53.9H584.8v0.6L395.5 790.6l0.4-131.2-40-0.1v0.5H162.1c-29.7 0-53.9-24.2-53.9-53.9V254.6c0-29.7 24.2-53.9 53.9-53.9h702.3c29.7 0 53.9 24.2 53.9 53.9v351.1z" fill="#8a8a8a" p-id="910"></path><path d="M257.3 378.8c-34.6 0-62.8 28.2-62.8 62.8s28.2 62.8 62.8 62.8c34.6 0 62.8-28.2 62.8-62.8s-28.2-62.8-62.8-62.8z m0 85.6c-12.6 0-22.8-10.2-22.8-22.8s10.2-22.8 22.8-22.8c12.5 0 22.8 10.2 22.8 22.8s-10.2 22.8-22.8 22.8zM512.2 378.8c-34.6 0-62.8 28.2-62.8 62.8s28.2 62.8 62.8 62.8 62.8-28.2 62.8-62.8-28.2-62.8-62.8-62.8z m0 85.6c-12.6 0-22.8-10.2-22.8-22.8s10.2-22.8 22.8-22.8S535 429 535 441.6s-10.2 22.8-22.8 22.8zM767.1 378.8c-34.6 0-62.8 28.2-62.8 62.8s28.2 62.8 62.8 62.8c34.6 0 62.8-28.2 62.8-62.8s-28.2-62.8-62.8-62.8z m0 85.6c-12.6 0-22.8-10.2-22.8-22.8s10.2-22.8 22.8-22.8c12.6 0 22.8 10.2 22.8 22.8s-10.2 22.8-22.8 22.8z" fill="#8a8a8a" p-id="911"></path></svg>